<svg id="Layer_1" data-name="Layer 1" xmlns="http://www.w3.org/2000/svg" viewBox="0 0 2500 2372"><defs><style>.cls-1{fill:#fff;}</style></defs><title>Artboard 1</title><path class="cls-1" d="M343.35,1884.83H251.28v36.45h84.56v30.78H251.28v44.78h96.16v30.8H215.77V1854.13H343.35Zm116.43,95.63,17.41,16.39a42.11,42.11,0,0,1-19.57,4.63c-19.58,0-47.15-12.06-47.15-60.62s27.56-60.62,47.15-60.62,47.11,12.06,47.11,60.62c0,16.26-3.14,28.27-8,37.26L478.39,1961Zm81.93,40.08-18.9-17.78c10.64-13.55,18.16-33.36,18.16-61.88,0-81.41-60.41-91.29-83.37-91.29s-83.33,9.88-83.33,91.29,60.39,91.32,83.33,91.32c10.12,0,28-1.89,44.45-11.65l20.57,19.64,19.09-19.65ZM711.56,1967c0,45.6-27.59,65.2-71.32,65.2-15.93,0-39.61-3.85-55.07-21-9.42-10.56-13-24.69-13.51-42v-115h37v112.55c0,24.24,14,34.81,30.89,34.81,24.91,0,35-12.06,35-33.09V1854.13h37V1967h0Zm97.08-73.69h.53l21.46,68.62H786.36Zm-32,98.49h64.06l11.13,35.87h39.39l-61.09-173.52H788.34l-61.85,173.52h38.17l12-35.87Zm179.09,4.46H1042v31.4H919.48V1854.13h36.29Zm223.68-46.47v77.87h-36.19V1854.13h36.19v65.7h67.68v-65.7h36.2v173.51h-36.2v-77.87Zm173-8.91c0-48.56,27.59-60.62,47.09-60.62s47.17,12.06,47.17,60.62-27.56,60.62-47.17,60.62S1352.4,1989.42,1352.4,1940.86Zm-36.2,0c0,81.46,60.44,91.32,83.29,91.32,23,0,83.42-9.86,83.42-91.32s-60.36-91.29-83.42-91.29C1376.65,1849.57,1316.2,1859.45,1316.2,1940.86ZM1655.93,1967c0,45.6-27.59,65.2-71.33,65.2-16,0-39.57-3.85-55.1-21-9.4-10.56-13-24.69-13.48-42v-115h36.91v112.55c0,24.24,14.06,34.81,31,34.81,24.88,0,35-12.06,35-33.09V1854.13h37V1967h0Zm66.31,7.21c.32,9.65,5.19,28,36.81,28,17.12,0,36.25-4.1,36.25-22.52,0-13.48-13-17.15-31.39-21.48l-18.62-4.36c-28.12-6.51-55.15-12.71-55.15-50.89,0-19.35,10.47-53.42,66.73-53.42,53.2,0,67.43,34.76,67.69,56h-34.84c-.93-7.68-3.85-26.1-35.51-26.1-13.74,0-30.17,5.07-30.17,20.78,0,13.61,11.12,16.39,18.29,18.09l42.33,10.39c23.68,5.82,45.39,15.5,45.39,46.64,0,52.26-53.12,56.79-68.36,56.79-63.25,0-74.12-36.5-74.12-58h34.67ZM1896,2027.64h-36.13V1854.13H1896v173.51Zm144.79-173.51h33.79v173.51h-36.2l-70.75-123.77H1967v123.77h-33.79V1854.13h38.17L2040.18,1975h.61V1854.13Zm155.08,80h72.42v93.52h-24.11l-3.62-21.74c-9.17,10.53-22.46,26.26-54.14,26.26-41.78,0-79.67-29.95-79.67-90.81,0-47.31,26.34-92.06,84.73-91.8,53.24,0,74.28,34.5,76.09,58.52h-36.2c0-6.78-12.36-28.57-37.92-28.57-25.91,0-49.8,17.86-49.8,62.29,0,47.39,25.86,59.69,50.49,59.69,8,0,34.63-3.09,42-38.17h-40.32v-29.2ZM244.3,2204.43c0-48.56,27.53-60.67,47.08-60.67s47.09,12.11,47.09,60.67-27.52,60.7-47.09,60.7-47.08-12.17-47.08-60.7Zm-36.24,0c0,81.39,60.39,91.42,83.33,91.42s83.34-10,83.34-91.42-60.4-91.29-83.34-91.29S208.06,2123,208.06,2204.43Zm266-5.82v-51h28.75c22.45,0,31.89,7.07,31.89,24,0,7.73,0,27-27.08,27H474Zm0,30h41.53c46.65,0,55.32-39.67,55.32-55.36,0-34-20.25-55.58-53.86-55.58H437.81v173.52H474v-62.59Zm195.19-30v-51h28.7c22.48,0,31.91,7.07,31.91,24,0,7.73,0,27-27,27Zm0,30h41.56c46.61,0,55.34-39.67,55.34-55.36,0-34-20.27-55.58-53.86-55.58H633v173.52h36.25v-62.59Zm187.52-24.19c0-48.56,27.47-60.67,47.12-60.67,19.48,0,47.08,12.11,47.08,60.67s-27.59,60.7-47.08,60.7C884.21,2265.13,856.74,2253,856.74,2204.43Zm-36.25,0c0,81.39,60.37,91.42,83.37,91.42s83.28-10,83.28-91.42-60.39-91.29-83.28-91.29S820.49,2123,820.49,2204.43Zm265.3-10.39v-46.46h45.12c21.27,0,25.34,13.61,25.34,22.77,0,17.17-9.14,23.68-28,23.68Zm-35.62,97.18h35.62v-67.91h37.38c26.85,0,28.33,9.14,28.33,32.83,0,17.83,1.36,26.77,3.79,35.08h40.14v-4.68c-7.73-2.87-7.73-9.17-7.73-34.45,0-32.48-7.73-37.74-22-44,17.15-5.75,26.77-22.22,26.77-41.27,0-15-8.4-49.06-54.56-49.06h-87.77v173.51Zm277.35,0H1291.3V2148.41h-52.4v-30.7H1380v30.7h-52.46Zm246.94-60.72c0,45.65-27.53,65.35-71.31,65.35-15.86,0-39.54-4-55-21.15-9.43-10.58-13-24.62-13.48-42v-115h36.91v112.55c0,24.16,14,34.88,30.93,34.88,24.88,0,35-12.17,35-33.16V2117.69h37V2230.5h0Zm175.36-112.8h33.89v173.52H1747.4l-70.8-123.77h-.39v123.77h-33.89V2117.71h38.17l68.91,120.77h.43V2117.71ZM1886,2291.23h-36.35V2117.71H1886v173.52Zm141.47,0h-36.22V2148.41h-52.33v-30.7h141v30.7h-52.46Zm189.46,0h-36.3v-65.51l-59.86-108h42.74l36,75.41,34.4-75.41h41l-58,108.44v65.08ZM1241.28,46.85,73.21,622.15V892.39H203.95V1703H2269.83V892.39h157V622.15Zm775.79,1412H456.74V718l784.54-400.95L2017.08,718v740.85h0Z"/><path class="cls-1" d="M1598.6,979.48H875.19V718H1598.6Zm0,375H875.19V1092.85H1598.6v261.61Z"/></svg>